<svg xmlns="http://www.w3.org/2000/svg" viewBox="0 0 400 200" width="400" height="200">
  <!-- Logo WASABI en verde -->
  <defs>
    <linearGradient id="greenGradient" x1="0%" y1="0%" x2="100%" y2="0%">
      <stop offset="0%" style="stop-color:#8BC34A;stop-opacity:1" />
      <stop offset="50%" style="stop-color:#9CCC65;stop-opacity:1" />
      <stop offset="100%" style="stop-color:#7CB342;stop-opacity:1" />
    </linearGradient>
  </defs>
  
  <!-- Letra W -->
  <path d="M10 20 L30 140 L50 80 L70 140 L90 20 L70 20 L60 100 L50 60 L40 100 L30 20 Z" fill="url(#greenGradient)" />
  
  <!-- Letra A -->
  <path d="M110 140 L120 110 L140 110 L150 140 L170 140 L145 20 L115 20 L90 140 Z M125 80 L135 80 L130 60 Z" fill="url(#greenGradient)" />
  
  <!-- Letra S -->
  <path d="M180 140 Q170 150 160 140 Q150 130 160 120 L200 100 Q210 90 200 80 L180 80 Q170 70 180 60 Q190 50 200 60 L220 60 Q230 50 220 40 Q210 30 200 40 Q190 30 180 40 Q170 30 160 40 Q150 50 160 60 Q170 70 180 80 L200 100 Q210 110 200 120 Q190 130 180 140" fill="url(#greenGradient)" />
  
  <!-- Letra A -->
  <path d="M240 140 L250 110 L270 110 L280 140 L300 140 L275 20 L245 20 L220 140 Z M255 80 L265 80 L260 60 Z" fill="url(#greenGradient)" />
  
  <!-- Letra B -->
  <path d="M310 20 L310 140 L350 140 Q370 130 360 110 Q370 100 360 90 Q370 80 360 70 Q370 60 360 50 Q370 40 360 30 Q370 20 350 20 Z M330 40 L350 40 Q360 50 350 60 L330 60 Z M330 80 L350 80 Q360 90 350 100 L330 100 Z" fill="url(#greenGradient)" />
  
  <!-- Letra I -->
  <path d="M380 20 L380 140 L400 140 L400 20 Z" fill="url(#greenGradient)" />
  
  <!-- Texto ENERGÍA VERDE -->
  <text x="50" y="170" font-family="Arial, sans-serif" font-size="24" font-weight="bold" fill="#2E7D32">ENERGÍA VERDE</text>
  
  <!-- Pequeña hoja decorativa -->
  <path d="M350 160 Q360 150 370 160 Q365 170 360 165 Q355 170 350 160" fill="#2E7D32" />
  <path d="M370 160 Q375 155 380 160 Q377 165 375 162 Q372 165 370 160" fill="#4CAF50" />
</svg>